<?xml version="1.0" encoding="UTF-8"?>
<svg id="Livello_2" data-name="Livello 2" xmlns="http://www.w3.org/2000/svg" viewBox="0 0 134.11 143.88">
  <g id="Livello_2-2" data-name="Livello 2">
    <g>
      <path d="M58.53,74.92l-10.06,23.65s-19.71,2.64-32.23-8.16C3.73,79.63-2.85,61.83,1.18,45.21c4.03-16.62,14.63-22.87,23.88-28.07L88.35,0l-24.9,58.73s-10.06-15.92-20.43-17.43c-7.73-1.12-19.32,5.23-19.32,5.23l34.83,28.38Z" style="fill: #fff;"/>
      <path d="M75.58,68.96l10.06-23.65s19.71-2.64,32.23,8.16c12.52,10.79,19.09,28.59,15.06,45.21-4.03,16.62-14.63,22.87-23.88,28.07l-63.29,17.13,24.9-58.73s10.06,15.92,20.43,17.43c7.74,1.12,19.32-5.23,19.32-5.23l-34.83-28.38Z" style="fill: #fff;"/>
    </g>
  </g>
</svg>